<svg width="50" height="50" viewBox="0 0 50 50" fill="none" xmlns="http://www.w3.org/2000/svg">
<path fill-rule="evenodd" clip-rule="evenodd" d="M41.3994 17.0306C39.8207 13.7879 37.3085 11.0833 34.2124 9.26659C32.4563 11.7261 28.8253 15.5148 27.7552 15.5148C26.4569 15.5148 26.1947 9.11665 26.1424 6.80605C25.7646 6.78269 25.3837 6.77083 25 6.77083C23.31 6.77083 21.6736 7.00082 20.1206 7.4312C21.625 7.318 22.6304 7.364 22.6304 7.364C22.6304 7.364 24.0329 10.4923 24.0329 11.9118C24.0329 13.3314 23.11 14.3706 23.11 15.0194C23.11 15.6681 26.1708 16.6971 26.1708 18.5527C26.1708 20.4083 18.6307 22.5228 19.0411 24.2708C19.4515 26.0189 21.1794 27.2468 19.6662 27.2468C18.153 27.2468 17.7271 23.7863 15.4306 23.7863C13.1341 23.7863 10.6697 24.8295 11.1057 25.7191C11.5416 26.6088 13.7905 28.9523 14.9583 28.9523C16.1261 28.9523 16.1513 31.6241 17.049 32.2153C17.9468 32.8064 19.4699 33.0372 19.4699 33.0372C19.8975 33.1214 20.2908 32.8144 20.3876 32.4298C20.3876 32.4298 20.311 30.7883 22.6304 30.7883C24.9497 30.7883 25.8363 33.3032 27.0052 33.8954C28.1741 34.4876 31.17 35.9248 31.5897 37.0089C32.0094 38.093 31.3963 39.987 30.3917 40.6165C29.8129 40.9791 29.0442 42.0508 28.4966 42.8942C32.613 42.0945 36.2348 39.9097 38.8572 36.8445C37.1716 36.7131 34.7379 36.2888 33.6774 34.918C32.1414 32.9326 33.9713 30.7151 34.7631 29.183C35.5549 27.6509 37.2472 25.0751 37.2472 24.5701C37.2472 24.0651 36.6515 24.0141 35.5971 23.2426C34.5426 22.4711 35.377 20.6348 36.2679 20.6348C37.1587 20.6348 38.9828 22.4458 39.7359 22.4458C40.4891 22.4458 38.3187 20.7392 38.3187 18.9694C38.3187 17.6687 40.332 17.1919 41.3994 17.0306ZM7.13575 21.3529C6.89645 22.5313 6.77083 23.751 6.77083 25C6.77083 33.6363 12.7765 40.8699 20.8394 42.7522C21.0704 41.7959 21.5317 39.6048 21.1794 38.6138C20.7218 37.3264 17.7271 36.9572 17.7271 35.4043C17.7271 33.8515 19.4558 33.5167 19.4558 33.5167C19.4558 33.5167 9.39085 32.7741 7.13575 21.3529ZM25 46.875C12.9188 46.875 3.125 37.0812 3.125 25C3.125 12.9188 12.9188 3.125 25 3.125C37.0812 3.125 46.875 12.9188 46.875 25C46.875 37.0812 37.0812 46.875 25 46.875Z" fill="#32142D"/>
</svg>
