<svg width="50" height="50" viewBox="0 0 50 50" fill="none" xmlns="http://www.w3.org/2000/svg">
<path fill-rule="evenodd" clip-rule="evenodd" d="M2.94727 43.3898V30.8273C2.94727 29.1429 4.33477 27.7335 6.04102 27.7335H18.6035C20.2879 27.7335 21.6973 29.121 21.6973 30.8273V43.3898C21.6973 45.0773 20.3098 46.4835 18.6035 46.4835H6.04102C5.22202 46.4786 4.43797 46.1511 3.85884 45.5719C3.27971 44.9928 2.95218 44.2088 2.94727 43.3898ZM2.94727 12.8898C2.94892 10.1967 4.01948 7.61435 5.92379 5.71005C7.8281 3.80574 10.4104 2.73518 13.1035 2.73352C15.7966 2.73518 18.3789 3.80574 20.2832 5.71005C22.1875 7.61435 23.2581 10.1967 23.2598 12.8898C23.2581 15.5829 22.1875 18.1652 20.2832 20.0695C18.3789 21.9738 15.7966 23.0444 13.1035 23.046C10.4104 23.0444 7.8281 21.9738 5.92379 20.0695C4.01948 18.1652 2.94892 15.5829 2.94727 12.8898ZM24.9785 19.8273L34.1973 3.87727C35.0598 2.3804 36.4691 2.38352 37.3441 3.87727L46.6754 19.8273C47.5504 21.3241 46.8504 22.5335 45.1129 22.5335H26.5629C24.8254 22.5335 24.116 21.321 24.9816 19.8273H24.9785ZM30.6035 41.2335L35.7598 37.1085L30.6035 32.9835C29.9019 32.4228 29.4518 31.6064 29.3522 30.7139C29.3029 30.2719 29.3411 29.8246 29.4646 29.3974C29.5882 28.9702 29.7946 28.5715 30.0723 28.2241C30.3499 27.8768 30.6932 27.5875 31.0826 27.3728C31.4721 27.158 31.9 27.0222 32.3419 26.9728C33.2345 26.8732 34.1301 27.1322 34.8316 27.6929L43.2941 34.4648C43.6908 34.7818 44.0111 35.1841 44.2312 35.6417C44.4513 36.0994 44.5656 36.6007 44.5656 37.1085C44.5656 37.6163 44.4513 38.1177 44.2312 38.5753C44.0111 39.033 43.6908 39.4352 43.2941 39.7523L34.8316 46.5241C34.1305 47.0852 33.2351 47.3448 32.3426 47.2458C31.45 47.1467 30.6334 46.6972 30.0723 45.996C29.5112 45.2949 29.2516 44.3995 29.3506 43.507C29.4497 42.6144 29.8992 41.7977 30.6004 41.2366L30.6035 41.2335Z" fill="#32142D"/>
</svg>
