<svg width="50" height="50" viewBox="0 0 50 50" fill="none" xmlns="http://www.w3.org/2000/svg">
<path fill-rule="evenodd" clip-rule="evenodd" d="M38.7156 6.49688C39.2988 6.76462 39.7854 7.20542 40.1094 7.75938C40.4319 8.23766 40.6109 8.79828 40.625 9.375V12.5C40.625 14.2188 39.2188 15.625 37.5 15.625C35.7812 15.625 34.5313 12.5 32.8125 12.5C32.397 12.4967 31.9996 12.3293 31.7069 12.0343C31.4142 11.7393 31.25 11.3406 31.25 10.925V7.83125C31.25 6.92188 31.9563 6.25312 32.8281 6.25312H37.5C37.9281 6.25312 38.3375 6.34375 38.7156 6.5V6.49688ZM31.25 27.2094V23.8813C31.25 23.0063 31.8875 22.5938 32.675 22.9344C32.675 22.9344 40.625 25.6531 40.625 32.9875C40.625 40.3594 32.7156 42.8156 32.7156 42.8156C31.925 43.1594 31.25 42.6969 31.25 41.8156V38.6906C31.25 37.775 31.8188 36.7094 32.5219 36.225C32.5219 36.225 34.375 35.4594 34.375 32.9875C34.375 30.6094 32.5219 29.7188 32.5219 29.7188C31.8531 29.1813 31.25 28.075 31.25 27.2125V27.2094ZM25 3.125C26.7375 3.125 28.125 4.5125 28.125 6.21875V43.75C28.125 45.4594 26.725 46.875 25 46.875C23.2625 46.875 21.875 45.475 21.875 43.75H12.5C12.0899 43.7496 11.6839 43.6682 11.3053 43.5106C10.9267 43.3529 10.5829 43.1221 10.2938 42.8312C10.0024 42.5425 9.77116 42.1988 9.61346 41.8201C9.45576 41.4414 9.37471 41.0352 9.375 40.625V37.5C9.375 35.7812 10.7813 34.375 12.5 34.375C14.2188 34.375 15.625 37.5 18.75 37.5H21.875V28.125C21.875 28.125 20.5406 28.1094 18.75 27.725C15.0469 26.9281 9.375 24.5156 9.375 17.1875C9.375 9.8125 15.0469 7.41875 18.75 6.63437C20.5406 6.25937 21.875 6.25 21.875 6.25V6.24062C21.875 4.54062 23.275 3.125 25 3.125ZM15.625 17.1875C15.625 19.5625 17.1875 20.7344 18.75 21.3125C20.3125 21.8906 21.8719 21.875 21.875 21.875V12.5C21.8719 12.5 20.3125 12.4375 18.75 12.9875C17.1875 13.5406 15.625 14.7125 15.625 17.1875Z" fill="#32142D"/>
</svg>
