<svg width="50" height="50" viewBox="0 0 50 50" fill="none" xmlns="http://www.w3.org/2000/svg">
<path fill-rule="evenodd" clip-rule="evenodd" d="M1.12371 20.751L13.4195 8.45525C14.6476 7.22713 16.6194 7.24414 17.8461 8.47083L19.6539 10.2786C20.8984 11.5232 20.8874 13.4874 19.669 14.7057L10.4843 23.8904C9.84975 24.525 9.87165 25.4964 10.4843 26.109L19.669 35.2937C20.8941 36.5189 20.8806 38.4941 19.6539 39.7208L17.8461 41.5286C16.6016 42.7732 14.6375 42.7623 13.4195 41.5442L1.12371 29.2484C0.484759 28.6095 0 27.4186 0 26.5476V23.4519C0 22.5436 0.503103 21.3716 1.12371 20.751ZM48.8763 29.2484L36.5805 41.5442C35.3524 42.7723 33.3806 42.7553 32.1539 41.5286L30.3461 39.7208C29.1016 38.4763 29.1126 36.5121 30.331 35.2937L39.5157 26.109C40.1502 25.4745 40.1284 24.5031 39.5157 23.8904L30.331 14.7057C29.1059 13.4806 29.1194 11.5053 30.3461 10.2786L32.1539 8.47083C33.3984 7.22628 35.3625 7.23717 36.5805 8.45525L48.8763 20.751C49.5152 21.39 50 22.5808 50 23.4519V26.5476C50 27.4559 49.4969 28.6278 48.8763 29.2484Z" fill="#32142D"/>
</svg>
