<svg width="50" height="50" viewBox="0 0 50 50" fill="none" xmlns="http://www.w3.org/2000/svg">
<path fill-rule="evenodd" clip-rule="evenodd" d="M13.9636 21.603C13.885 21.4556 13.8092 21.3065 13.7364 21.1556C13.378 20.4307 13.117 19.7965 13.0139 19.2875C12.6795 18.1595 12.5 16.965 12.5 15.7285C12.5 8.82496 18.0964 3.22852 25 3.22852C31.9036 3.22852 37.5 8.82496 37.5 15.7285C37.5 18.4107 36.6552 20.8956 35.2172 22.9316C33.5372 26.121 31.3026 30.3926 31.3026 33.4051C27.7031 34.3847 20.4887 36.0617 20.4887 36.0617C19.6598 36.256 18.9879 35.7035 18.9879 34.8507C18.9879 34.8507 18.9879 35.9931 18.9879 33.4051C18.9879 29.7625 15.6752 24.8956 13.9636 21.603ZM18.7519 40.2601C18.7377 39.386 19.4056 38.5058 20.2255 38.2987L31.3639 35.486L31.3415 37.0696C31.3291 37.9443 30.6448 38.8248 29.7812 39.0444L20.3155 41.4517C19.4662 41.6677 18.7667 41.1715 18.7519 40.2601ZM18.7502 45.5324C18.736 44.6583 19.4034 43.7765 20.2226 43.5675L31.3519 40.7285L31.3295 42.3122C31.3171 43.1868 30.6333 44.0689 29.7705 44.2906L20.3125 46.7203C19.4639 46.9384 18.7651 46.4438 18.7502 45.5324Z" fill="#32142D"/>
</svg>
