<svg width="50" height="50" viewBox="0 0 50 50" fill="none" xmlns="http://www.w3.org/2000/svg">
<path fill-rule="evenodd" clip-rule="evenodd" d="M28.125 37.5H21.875V43.7506C21.875 45.4762 20.4879 46.875 18.75 46.875C17.0241 46.875 15.625 45.4574 15.625 43.7518V41.86C15.625 40.6576 15.625 38.9468 15.625 37.425L15.6157 37.5C13.895 37.5 12.5 36.0907 12.5 34.4038V18.75H37.5V34.4038C37.5 36.1138 36.0843 37.5 34.3843 37.5H34.375V43.7506C34.375 45.4762 32.9879 46.875 31.25 46.875C29.5241 46.875 28.125 45.4574 28.125 43.7518V41.86C28.125 40.6576 28.125 38.9468 28.125 37.425V37.5ZM40.625 29.36C40.625 27.6351 40.625 24.8636 40.625 23.1051V21.8817C40.625 20.1521 42.0121 18.75 43.75 18.75C45.4759 18.75 46.875 20.1366 46.875 21.8744V31.2506C46.875 32.9762 45.4879 34.375 43.75 34.375C42.0241 34.375 40.625 32.9574 40.625 31.2518V29.36ZM37.5 15.4784H12.5C12.5 8.65579 18.0964 3.125 25 3.125C31.9036 3.125 37.5 8.65579 37.5 15.4784ZM3.125 29.36C3.125 27.6351 3.125 24.8636 3.125 23.1051V21.8817C3.125 20.1521 4.51208 18.75 6.25 18.75C7.97589 18.75 9.375 20.1366 9.375 21.8744V31.2506C9.375 32.9762 7.98792 34.375 6.25 34.375C4.52411 34.375 3.125 32.9574 3.125 31.2518V29.36Z" fill="#32142D"/>
</svg>
